<svg xmlns="http://www.w3.org/2000/svg" version="1.1" viewBox="-5.0 -10.0 110.0 135.0">
 <path d="m29.559 85.316c2.668 3.0312 6.5273 4.7422 10.562 4.6836h19.75c4.0195 0.0625 7.8711-1.6328 10.535-4.6445 10.586-10.449 12.438-22.555 5.5-35.98-0.57422-1.0938-0.62891-2.3906-0.14844-3.5312 1.5469-4.0078 2.5-8.2227 2.832-12.508 0.28516-2.5508 0.097656-5.1328-0.54688-7.6172-2.8398-9.8945-12-15.035-28.09-15.719-16.008 0.68359-25.172 5.8242-28 15.719-0.64453 2.4844-0.83203 5.0664-0.54688 7.6172 0.32812 4.2852 1.2812 8.4961 2.832 12.5 0.47656 1.1445 0.42188 2.4414-0.14844 3.543-6.9336 13.422-5.0781 25.527 5.4688 35.938zm7.4062-61.289c2.8203-1.7656 6.9766-2.5742 13.035-2.5352h0.011719c6.0664-0.039063 10.199 0.76953 13.023 2.5352h-0.003906c2.5781 1.7188 4.0586 4.6758 3.8828 7.7734-0.15625 3.7188-1.1523 6.5938-2.9453 8.5352-0.30469 0.33594-0.78125 0.44922-1.2031 0.28516-4.0586-1.6328-8.3672-2.5469-12.738-2.6992-0.011719 0-0.019532 0.011719-0.03125 0.011719-0.011719 0-0.007813-0.011719-0.019532-0.011719-4.3711 0.15234-8.6836 1.0664-12.742 2.6992-0.41797 0.16406-0.89844 0.050781-1.1992-0.28516-1.7969-1.9414-2.7891-4.8203-2.9453-8.5352-0.17578-3.0938 1.2969-6.0508 3.8711-7.7734z"/>
<text x="0.0" y="117.5" font-size="5.0" font-weight="bold" font-family="Arbeit Regular, Helvetica, Arial-Unicode, Arial, Sans-serif" fill="#000000">Created by Annisa</text><text x="0.0" y="122.5" font-size="5.0" font-weight="bold" font-family="Arbeit Regular, Helvetica, Arial-Unicode, Arial, Sans-serif" fill="#000000">from Noun Project</text></svg>